<?xml version="1.0" encoding="UTF-8" standalone="no"?>
<svg
   width="640"
   height="480"
   version="1.1"
   id="svg1"
   sodipodi:docname="basketball-court.svg"
   inkscape:version="1.4 (86a8ad7, 2024-10-11)"
   xml:space="preserve"
   xmlns:inkscape="http://www.inkscape.org/namespaces/inkscape"
   xmlns:sodipodi="http://sodipodi.sourceforge.net/DTD/sodipodi-0.dtd"
   xmlns="http://www.w3.org/2000/svg"
   xmlns:svg="http://www.w3.org/2000/svg"><sodipodi:namedview
     id="namedview1"
     pagecolor="#ffffff"
     bordercolor="#111111"
     borderopacity="1"
     inkscape:showpageshadow="0"
     inkscape:pageopacity="0"
     inkscape:pagecheckerboard="1"
     inkscape:deskcolor="#d1d1d1"
     inkscape:zoom="1"
     inkscape:cx="328"
     inkscape:cy="273.5"
     inkscape:window-width="1920"
     inkscape:window-height="1017"
     inkscape:window-x="1912"
     inkscape:window-y="-8"
     inkscape:window-maximized="1"
     inkscape:current-layer="svg1" /><!-- Created with SVG-edit - https://github.com/SVG-Edit/svgedit--><defs
     id="defs1"><inkscape:perspective
       sodipodi:type="inkscape:persp3d"
       inkscape:vp_x="135.0574 : 341.82338 : 1"
       inkscape:vp_y="0 : 1000 : 0"
       inkscape:vp_z="578.48171 : 197.5736 : 1"
       inkscape:persp3d-origin="320 : 160 : 1"
       id="perspective7" /><inkscape:path-effect
       effect="dashed_stroke"
       message=""
       id="path-effect3"
       is_visible="true"
       lpeversion="1"
       numberdashes="3"
       holefactor="0"
       splitsegments="true"
       halfextreme="true"
       unifysegment="true" /><filter
       height="1.0345871"
       id="svg_1_blur"
       width="1.0205128"
       x="-0.01025641"
       y="-0.017293558"><feGaussianBlur
         in="SourceGraphic"
         stdDeviation="4"
         id="feGaussianBlur1" /></filter></defs><g
     inkscape:groupmode="layer"
     id="layer1"
     inkscape:label="COURTLINES"
     inkscape:highlight-color="#078542"
     style="display:inline;opacity:1"
     transform="matrix(1,0,0,-1,0,476.96999)"><g
       id="g4"
       inkscape:label="free throws"><path
         style="display:inline;fill:none;stroke:#000000;stroke-width:4;stroke-dasharray:16, 8;stroke-dashoffset:0"
         d="m 381.83001,281.25 c 0,36.71589 -29.76411,66.48 -66.48,66.48 -36.71589,0 -66.48001,-29.76411 -66.48001,-66.48"
         id="svg_6"
         inkscape:label="free throw circle inside" /><path
         style="display:inline;fill:none;stroke:#000000;stroke-width:5"
         d="m 248.87,281.25 c 0,-36.71589 29.76412,-66.48 66.48001,-66.48 36.71589,0 66.48,29.76411 66.48,66.48"
         id="path4"
         inkscape:label="free throw circle" /><path
         d="m 269.76566,441.71779 v -22.56207 0 c 0,-22.54381 20.20499,-40.81509 45.12987,-40.81509 24.92485,0 45.12984,18.27128 45.12984,40.81509 v 22.85655"
         fill="none"
         id="svg_44"
         stroke="#000000"
         stroke-width="4.91336"
         style="display:inline;opacity:1;stroke-width:4;stroke-dasharray:none"
         inkscape:label="restricted area"
         sodipodi:nodetypes="ccsssc" /><path
         id="rect3"
         style="fill:none;stroke:#000000;stroke-width:5;stroke-dasharray:none;paint-order:markers stroke fill"
         d="M 230.67833,467.50365 V 282.05704 h 168.26986 v 185.44661"
         sodipodi:nodetypes="cccc"
         inkscape:label="painted area" /></g><path
       d="m 93.99,467.43 c -1.783147,-75.59608 -0.478717,-75.49306 -1.33,-128.91 -0.415414,-26.06669 85.82,-154.34 217.83,-154.34 143.43,0 223.35,125.23 223.72,152.33 l 1.77,131.13"
       fill="none"
       id="svg_46"
       stroke="#000000"
       stroke-width="4.39738"
       inkscape:label="3pt line"
       style="display:inline;opacity:1;stroke-width:5;stroke-dasharray:none"
       sodipodi:nodetypes="csssc" /><g
       id="g2"
       inkscape:label="hoop"><path
         id="svg_23"
         style="display:inline;opacity:1;fill:none;stroke:#000000;stroke-width:3;stroke-dasharray:none"
         d="M 314.55724,438.3621 314.41,443.02792 M 329.39999,423.88 c 0,8.09649 -6.56351,14.66 -14.66,14.66 -8.09649,0 -14.66,-6.56351 -14.66,-14.66 10e-6,-8.09649 6.56351,-14.65999 14.66,-14.65999 8.09649,0 14.65999,6.5635 14.66,14.65999 z"
         sodipodi:nodetypes="ccsssss"
         inkscape:label="hoop" /><line
         fill="none"
         id="svg_22"
         stroke="#000000"
         stroke-width="5"
         x1="286.87"
         x2="342.82999"
         y1="443.07001"
         y2="443.07001"
         inkscape:label="backboard"
         style="stroke-width:4;stroke-dasharray:none" /></g><g
       id="g3"
       inkscape:label="outline"
       style="display:inline"><path
         id="svg_15"
         style="display:inline;fill:none;stroke:#000000;stroke-width:5"
         inkscape:label="throw in line"
         d="m 48.810001,167.00999 24.377303,0.0343 m 481.184966,0.67633 28.01774,0.0394"
         sodipodi:nodetypes="cccc" /><path
         id="svg_4"
         style="display:inline;fill:none;stroke:#000000;stroke-width:5"
         inkscape:label="center circle"
         d="M 379,9.3900003 C 379,44.255737 350.73574,72.52 315.87,72.520001 281.00426,72.520006 252.73999,44.25574 252.73999,9.3900003"
         sodipodi:nodetypes="csc" /><rect
         fill="none"
         height="458.20999"
         id="svg_8"
         stroke="#000000"
         stroke-width="5"
         width="532.84003"
         x="47.900002"
         y="9.3800001"
         inkscape:label="outline" /></g></g></svg>
